<mxfile host="app.diagrams.net" modified="2024-04-30T06:52:19.673Z" agent="Mozilla/5.0 (Windows NT 10.0; Win64; x64) AppleWebKit/537.36 (KHTML, like Gecko) Chrome/124.0.0.0 Safari/537.36" etag="aGoJtFIhk4DwnRoFQr_2" version="24.2.5" type="github">
  <diagram name="Page-1" id="qA_CTGMFHTZ-GcvoESF1">
    <mxGraphModel dx="955" dy="1575" grid="0" gridSize="10" guides="1" tooltips="1" connect="1" arrows="1" fold="1" page="1" pageScale="1" pageWidth="850" pageHeight="1100" math="0" shadow="0">
      <root>
        <mxCell id="0" />
        <mxCell id="1" parent="0" />
        <mxCell id="_zbsyM7X_HpeMC6Ni_a8-1" value="&lt;font style=&quot;font-size: 16px;&quot; face=&quot;Times New Roman&quot;&gt;SENSORS IN POND&lt;/font&gt;" style="swimlane;whiteSpace=wrap;html=1;hachureGap=4;fontFamily=Architects Daughter;fontSource=https%3A%2F%2Ffonts.googleapis.com%2Fcss%3Ffamily%3DArchitects%2BDaughter;startSize=25;fillColor=#dae8fc;strokeColor=#6c8ebf;strokeWidth=2;" parent="1" vertex="1">
          <mxGeometry x="8" y="-1079" width="814" height="178" as="geometry" />
        </mxCell>
        <mxCell id="_zbsyM7X_HpeMC6Ni_a8-2" value="&lt;b&gt;&lt;font color=&quot;#ff0000&quot; face=&quot;Times New Roman&quot; style=&quot;font-size: 14px;&quot;&gt;TEMPERATURE SENSOR&lt;/font&gt;&lt;/b&gt;&lt;div&gt;&lt;font face=&quot;yoXCy55yE_F0CgokuBOC&quot; size=&quot;3&quot; style=&quot;&quot; color=&quot;#0f1111&quot;&gt;Make BOJACK&amp;nbsp;&lt;/font&gt;&lt;/div&gt;&lt;div&gt;&lt;font face=&quot;yoXCy55yE_F0CgokuBOC&quot; size=&quot;3&quot; style=&quot;&quot; color=&quot;#0f1111&quot;&gt;Model&amp;nbsp; BJ-TSMK&lt;/font&gt;&lt;br&gt;&lt;/div&gt;" style="ellipse;whiteSpace=wrap;html=1;fillColor=#d5e8d4;strokeColor=#82b366;" parent="_zbsyM7X_HpeMC6Ni_a8-1" vertex="1">
          <mxGeometry x="11" y="38.5" width="136" height="128" as="geometry" />
        </mxCell>
        <mxCell id="_zbsyM7X_HpeMC6Ni_a8-3" value="&lt;b&gt;&lt;font color=&quot;#ff0000&quot; face=&quot;Times New Roman&quot; style=&quot;font-size: 14px;&quot;&gt;pH SENSOR&lt;/font&gt;&lt;/b&gt;&lt;div&gt;&lt;span style=&quot;font-size: medium; background-color: initial;&quot;&gt;&lt;font face=&quot;xQ1v7T52P131shDl_5Uk&quot;&gt;Make Bytesware Electronics Model&lt;/font&gt;&lt;/span&gt;&lt;/div&gt;&lt;div&gt;&lt;span style=&quot;font-size: medium; background-color: initial;&quot;&gt;&lt;font face=&quot;xQ1v7T52P131shDl_5Uk&quot;&gt;&amp;nbsp;BE-002767&lt;/font&gt;&lt;/span&gt;&lt;/div&gt;" style="ellipse;whiteSpace=wrap;html=1;fillColor=#f8cecc;strokeColor=#b85450;" parent="_zbsyM7X_HpeMC6Ni_a8-1" vertex="1">
          <mxGeometry x="164" y="41.5" width="139" height="122" as="geometry" />
        </mxCell>
        <mxCell id="_zbsyM7X_HpeMC6Ni_a8-4" value="&lt;div style=&quot;line-height: 50%;&quot;&gt;&lt;p style=&quot;line-height: 50%;&quot; class=&quot;MsoNormal&quot;&gt;&lt;b&gt;&lt;font color=&quot;#ff0000&quot; style=&quot;font-size: 14px;&quot; face=&quot;Times New Roman&quot;&gt;DISSOLVED&lt;/font&gt;&lt;/b&gt;&lt;/p&gt;&lt;p style=&quot;line-height: 50%;&quot; class=&quot;MsoNormal&quot;&gt;&lt;b&gt;&lt;font color=&quot;#ff0000&quot; style=&quot;font-size: 14px;&quot; face=&quot;Times New Roman&quot;&gt;OXYGEN SENSOR&lt;/font&gt;&lt;/b&gt;&lt;/p&gt;&lt;div style=&quot;line-height: 4.8px;&quot;&gt;&lt;p style=&quot;line-height: 4.8px;&quot; class=&quot;MsoNormal&quot;&gt;&lt;font face=&quot;Times New Roman&quot; size=&quot;3&quot;&gt;Make DFROBOT&amp;nbsp;&lt;/font&gt;&lt;/p&gt;&lt;p style=&quot;line-height: 4.8px;&quot; class=&quot;MsoNormal&quot;&gt;&lt;font face=&quot;Times New Roman&quot; size=&quot;3&quot;&gt;Model SEN0237-A&lt;/font&gt;&lt;/p&gt;&lt;/div&gt;&lt;/div&gt;" style="ellipse;whiteSpace=wrap;html=1;fillColor=#dae8fc;strokeColor=#6c8ebf;" parent="_zbsyM7X_HpeMC6Ni_a8-1" vertex="1">
          <mxGeometry x="317" y="44.25" width="148" height="116.5" as="geometry" />
        </mxCell>
        <mxCell id="_zbsyM7X_HpeMC6Ni_a8-5" value="&lt;b&gt;&lt;font color=&quot;#ff0000&quot; face=&quot;Times New Roman&quot; style=&quot;font-size: 14px;&quot;&gt;TURBIDITY&amp;nbsp;&lt;/font&gt;&lt;/b&gt;&lt;div&gt;&lt;b&gt;&lt;font color=&quot;#ff0000&quot; face=&quot;Times New Roman&quot; style=&quot;font-size: 14px;&quot;&gt;SENSOR&lt;/font&gt;&lt;/b&gt;&lt;div&gt;&lt;font face=&quot;gRAh0EWO_FDQXErBKF5e&quot; size=&quot;3&quot; color=&quot;#333333&quot;&gt;Make Bombay Electronics&amp;nbsp;&lt;/font&gt;&lt;/div&gt;&lt;div&gt;&lt;font face=&quot;gRAh0EWO_FDQXErBKF5e&quot; size=&quot;3&quot; color=&quot;#333333&quot;&gt;Model BE0611&lt;/font&gt;&lt;br&gt;&lt;/div&gt;&lt;/div&gt;" style="ellipse;whiteSpace=wrap;html=1;fillColor=#ffe6cc;strokeColor=#d79b00;" parent="_zbsyM7X_HpeMC6Ni_a8-1" vertex="1">
          <mxGeometry x="476" y="44.25" width="149" height="120" as="geometry" />
        </mxCell>
        <mxCell id="_zbsyM7X_HpeMC6Ni_a8-6" value="&lt;b&gt;&lt;font color=&quot;#ff0000&quot; face=&quot;Times New Roman&quot; style=&quot;font-size: 14px;&quot;&gt;CONDUCTIVITY SENSOR&lt;/font&gt;&lt;/b&gt;&lt;div&gt;&lt;font face=&quot;nRFbfNNalSt3gt_-9yWB&quot; size=&quot;3&quot; color=&quot;#404040&quot;&gt;Make CQRobot&amp;nbsp;&lt;/font&gt;&lt;/div&gt;&lt;div&gt;&lt;font face=&quot;nRFbfNNalSt3gt_-9yWB&quot; size=&quot;3&quot; color=&quot;#404040&quot;&gt;Model&amp;nbsp;&lt;/font&gt;&lt;/div&gt;&lt;div&gt;&lt;font face=&quot;nRFbfNNalSt3gt_-9yWB&quot; size=&quot;3&quot; color=&quot;#404040&quot;&gt;CQRSENTDS01&lt;/font&gt;&lt;br&gt;&lt;/div&gt;" style="ellipse;whiteSpace=wrap;html=1;fillColor=#e1d5e7;strokeColor=#9673a6;" parent="_zbsyM7X_HpeMC6Ni_a8-1" vertex="1">
          <mxGeometry x="634" y="42" width="146" height="121" as="geometry" />
        </mxCell>
        <mxCell id="ssCzipvsPn632TLhXLIn-3" value="&lt;font face=&quot;Times New Roman&quot;&gt;&lt;span style=&quot;font-size: 14px;&quot;&gt;CONTROLLING UNIT&lt;/span&gt;&lt;/font&gt;" style="swimlane;horizontal=0;whiteSpace=wrap;html=1;hachureGap=4;fontFamily=Architects Daughter;fontSource=https%3A%2F%2Ffonts.googleapis.com%2Fcss%3Ffamily%3DArchitects%2BDaughter;swimlaneLine=1;strokeWidth=2;" vertex="1" parent="1">
          <mxGeometry x="8" y="-883" width="236" height="172" as="geometry">
            <mxRectangle x="304" y="-882" width="35" height="141" as="alternateBounds" />
          </mxGeometry>
        </mxCell>
        <mxCell id="ssCzipvsPn632TLhXLIn-4" value="&lt;font size=&quot;1&quot; style=&quot;&quot; face=&quot;Times New Roman&quot;&gt;&lt;b style=&quot;font-size: 16px;&quot;&gt;Raspberry PI&lt;/b&gt;&lt;/font&gt;" style="rounded=0;whiteSpace=wrap;html=1;hachureGap=4;fontFamily=Architects Daughter;fontSource=https%3A%2F%2Ffonts.googleapis.com%2Fcss%3Ffamily%3DArchitects%2BDaughter;" vertex="1" parent="ssCzipvsPn632TLhXLIn-3">
          <mxGeometry x="332" y="47" width="153" height="79" as="geometry" />
        </mxCell>
        <mxCell id="ssCzipvsPn632TLhXLIn-5" value="&lt;font style=&quot;font-size: 14px;&quot; face=&quot;Times New Roman&quot;&gt;&lt;b&gt;PROCESSING UNIT&lt;/b&gt;&lt;/font&gt;" style="text;html=1;align=center;verticalAlign=middle;whiteSpace=wrap;rounded=0;fontFamily=Architects Daughter;fontSource=https%3A%2F%2Ffonts.googleapis.com%2Fcss%3Ffamily%3DArchitects%2BDaughter;" vertex="1" parent="ssCzipvsPn632TLhXLIn-3">
          <mxGeometry x="338" y="134" width="147" height="30" as="geometry" />
        </mxCell>
        <mxCell id="ssCzipvsPn632TLhXLIn-6" value="" style="shape=image;verticalLabelPosition=bottom;labelBackgroundColor=default;verticalAlign=top;aspect=fixed;imageAspect=0;image=data:image/jpeg,/9j/4AAQSkZJRgABAQEBLAEsAAD/4QCcRXhpZgAASUkqAAgAAAADAA4BAgBSAAAAMgAAABoBBQABAAAAhAAAABsBBQABAAAAjAAAAAAAAABQcm9wZWxsZXIgaWNvbi4gQm9hdCBibGFkZXMgaWxsdXN0cmF0aW9uIHN5bWJvbC4gU2lnbiBmYW4gZWxlY3RyaWMsIGNvb2xlciB2ZWN0b3IuLAEAAAEAAAAsAQAAAQAAAP/hBclodHRwOi8vbnMuYWRvYmUuY29tL3hhcC8xLjAvADw/eHBhY2tldCBiZWdpbj0i77u/IiBpZD0iVzVNME1wQ2VoaUh6cmVTek5UY3prYzlkIj8+Cjx4OnhtcG1ldGEgeG1sbnM6eD0iYWRvYmU6bnM6bWV0YS8iPgoJPHJkZjpSREYgeG1sbnM6cmRmPSJodHRwOi8vd3d3LnczLm9yZy8xOTk5LzAyLzIyLXJkZi1zeW50YXgtbnMjIj4KCQk8cmRmOkRlc2NyaXB0aW9uIHJkZjphYm91dD0iIiB4bWxuczpwaG90b3Nob3A9Imh0dHA6Ly9ucy5hZG9iZS5jb20vcGhvdG9zaG9wLzEuMC8iIHhtbG5zOklwdGM0eG1wQ29yZT0iaHR0cDovL2lwdGMub3JnL3N0ZC9JcHRjNHhtcENvcmUvMS4wL3htbG5zLyIgICB4bWxuczpHZXR0eUltYWdlc0dJRlQ9Imh0dHA6Ly94bXAuZ2V0dHlpbWFnZXMuY29tL2dpZnQvMS4wLyIgeG1sbnM6ZGM9Imh0dHA6Ly9wdXJsLm9yZy9kYy9lbGVtZW50cy8xLjEvIiB4bWxuczpwbHVzPSJodHRwOi8vbnMudXNlcGx1cy5vcmcvbGRmL3htcC8xLjAvIiAgeG1sbnM6aXB0Y0V4dD0iaHR0cDovL2lwdGMub3JnL3N0ZC9JcHRjNHhtcEV4dC8yMDA4LTAyLTI5LyIgeG1sbnM6eG1wUmlnaHRzPSJodHRwOi8vbnMuYWRvYmUuY29tL3hhcC8xLjAvcmlnaHRzLyIgcGhvdG9zaG9wOkNyZWRpdD0iR2V0dHkgSW1hZ2VzIiBHZXR0eUltYWdlc0dJRlQ6QXNzZXRJRD0iMTQwMDgwNjY4MiIgeG1wUmlnaHRzOldlYlN0YXRlbWVudD0iaHR0cHM6Ly93d3cuaXN0b2NrcGhvdG8uY29tL2xlZ2FsL2xpY2Vuc2UtYWdyZWVtZW50P3V0bV9tZWRpdW09b3JnYW5pYyZhbXA7dXRtX3NvdXJjZT1nb29nbGUmYW1wO3V0bV9jYW1wYWlnbj1pcHRjdXJsIiBwbHVzOkRhdGFNaW5pbmc9Imh0dHA6Ly9ucy51c2VwbHVzLm9yZy9sZGYvdm9jYWIvRE1JLVBST0hJQklURUQtRVhDRVBUU0VBUkNIRU5HSU5FSU5ERVhJTkciID4KPGRjOmNyZWF0b3I+PHJkZjpTZXE+PHJkZjpsaT5JdmFuIFpha2FsZXZ5Y2g8L3JkZjpsaT48L3JkZjpTZXE+PC9kYzpjcmVhdG9yPjxkYzpkZXNjcmlwdGlvbj48cmRmOkFsdD48cmRmOmxpIHhtbDpsYW5nPSJ4LWRlZmF1bHQiPlByb3BlbGxlciBpY29uLiBCb2F0IGJsYWRlcyBpbGx1c3RyYXRpb24gc3ltYm9sLiBTaWduIGZhbiBlbGVjdHJpYywgY29vbGVyIHZlY3Rvci48L3JkZjpsaT48L3JkZjpBbHQ+PC9kYzpkZXNjcmlwdGlvbj4KPHBsdXM6TGljZW5zb3I+PHJkZjpTZXE+PHJkZjpsaSByZGY6cGFyc2VUeXBlPSdSZXNvdXJjZSc+PHBsdXM6TGljZW5zb3JVUkw+aHR0cHM6Ly93d3cuaXN0b2NrcGhvdG8uY29tL3Bob3RvL2xpY2Vuc2UtZ20xNDAwODA2NjgyLT91dG1fbWVkaXVtPW9yZ2FuaWMmYW1wO3V0bV9zb3VyY2U9Z29vZ2xlJmFtcDt1dG1fY2FtcGFpZ249aXB0Y3VybDwvcGx1czpMaWNlbnNvclVSTD48L3JkZjpsaT48L3JkZjpTZXE+PC9wbHVzOkxpY2Vuc29yPgoJCTwvcmRmOkRlc2NyaXB0aW9uPgoJPC9yZGY6UkRGPgo8L3g6eG1wbWV0YT4KPD94cGFja2V0IGVuZD0idyI/Pgr/7QCYUGhvdG9zaG9wIDMuMAA4QklNBAQAAAAAAHwcAlAAD0l2YW4gWmFrYWxldnljaBwCeABSUHJvcGVsbGVyIGljb24uIEJvYXQgYmxhZGVzIGlsbHVzdHJhdGlvbiBzeW1ib2wuIFNpZ24gZmFuIGVsZWN0cmljLCBjb29sZXIgdmVjdG9yLhwCbgAMR2V0dHkgSW1hZ2Vz/9sAQwAKBwcIBwYKCAgICwoKCw4YEA4NDQ4dFRYRGCMfJSQiHyIhJis3LyYpNCkhIjBBMTQ5Oz4+PiUuRElDPEg3PT47/8IACwgCZAJkAQERAP/EABsAAQACAwEBAAAAAAAAAAAAAAAEBQEDBgIH/9oACAEBAAAAAezAAAAAAAAAAAAAAAAAAAAAAAAAAAAAAAAAAAAAAAAAAAAAAAAAAAAAAAAAAAAAAAAAAAAAAAAAAAAAAAAAAAAAAAAAAAAAAAAAAAAAAAAAAAAAAAAAAAAAAAAAAAAAAAAAAAAAAAAAAAAAAAAAAAAAAAAAAAAAAAAAAAAAAAAAAAAAAAAAAAAAAAAAAAAAAAAAAAAAAHiFCjafGd0y0kAAAAAAAAAACDRVMDyAze9ftAAAAAAAAABE5GmAAW3d5AAAAAAAAAFXw2oAAd5bAAAAAAAAAEX55qAADpetAAAAAAAAAY4uiAAB0nXAAAAAAAAAxFh8P4AAB214AAAAAAAAGuv3+vnAAAOh6DFh6AAAAAAAARodhti/NwAB667ocx4U/cAAAAAAACHpsctHzbyAA2dbYTvbxWzZAAAAAAAAheJ+cQtXLVIAGe4udEGXKea2ZIAAAAAAARY9jnzXb5dJxIAF72fpiv8AU7PmssNoAAAAAANVfaZ81syQ8fO4gAb+90SZeULXYZ8Vtn6AAAAAAGKux2YrZchpgR+KADrelxD0WPtC8z0aPYgAAAAACJ5moPqY0QbL3wtOAevoU3LTAsdiukSVbM3AAAAAAPNZaZ0wrLOmBZ+lVweAF31Oifuaq+y9+ayy966+0AAAAAAQ8y8Vlhs81ll7xB80HOgO3u9dfKlNEOyzHj2Cul7gAAAAAKqz9R9E9X75KBmdo+c6gZ+l7mK6RKQfctV2PvVDsQAAAAAaodirJ+zXAs0aPYnNckCb9FGKyftxV2mY2qcqrTIAAAAAQtknxXWivk7/ADWWfo8/O4YXvahrr7RDzLxV2qDukAAAAABV2XqL5mYq7TML3KCl4i3sNNPf9SCvk7/NbaK6bs0aJwAAAAAVVqr5e3RHnqq0yGIcqv2y40wGqHYquy9REvzXWYAAAAA811mq7PMP3J8QLICt4eOt+32DGqNT7YsDX59y760q7UAAAAAa4ViqrVXy9sfVNBj5zEHUdPyMaLG1ABZ9DfAAAAADTGnqq1Vs/wBxcSxiLn5uFn33zHwAAbvockAAAAA0xp6qtVbP9xcSyu5KX1/zPyLvsfmYAAXPcgAAAAGuFYqq1V8vbH1TKzmqZI+j8xy5776s5EAAH0aYAAAAArqOfaxLPMP3vrqCshBf9lR0+3otPC6wAAdj0IAAAAMcfzwkT9muNF1gFn1Vq88dQAAAdL1oAAAAOd48AAA7LoBV8bDAADo+vAAAADHziKAAA2/Sdga+QoAAB0/VgAAABp+ZgAAHR9eA5vksAAOx6EAAAAPPzLwAAA+iTgGOX5fAAH0CyAAAABw1MAABa96A110yn44AHv6Z7AAAABWcAAAB2t6DXE1T9rjefAC170AAAABxvPgABv7bOz08a/cqQaK7j4oA6zpgAAAAGv59CAAHT9XjX5e/eTELVY0XGAD6PLAAAAAIfAaAAGfo0sB5ixpUrPn5rpAWvegAAAABX8HpAAtun97tmXnXpxJlZea/l6cB3NyAAAAACBwkcAM/QbDXq14etm32I8KZUcaBZ99kAAAAACJw0EAdH14AY0Q9k71p+cag2fQZoAAAAABr5CgAXnS692/Z7yxr1adW6XsI1Hy2s39vaAAAAAAAq+YqcG/qOizjTp1+MM+9u/Zk1wfU7VT6JNxtAAAAAAANFfr2ZkS/YADVE1ztwAAAAAAAADEeJnfv2ZBjVo0epe8AAAAAAAAADxo0a2csYzt3b/QAAAAAAAAAADGGcgAAAAAAAAAAAAAAAAAAAAAAAAAAAAAAAAAAAAAAAAAAAAAAAAAAAAAAAAAAAAAAAAAAAAAAAAAAAAAAAAAAAAAAAAAAAAAAAAAAAAAAAAAAAAAAAAAAAAAAAAAAAAAAAAAAAAAAAAAAAAAAAAAAAAAAAAAAAAAAAAAAAAAAAAAAAAAAAAAAAAAAAAAAAAAAAAAAAAAH/8QAKxAAAgECBAUEAwEBAQAAAAAAAgMBAAQFEBESEyAwQFAUISIxFTIzI2Cg/9oACAEBAAEFAv8AxUEQjRX1qFFi1tFTjI1OMlX5ltfmWVGM0GLW5Ut6m/8AAuvEIpuMzTL+5ZUzM9GJmJtsUYulsFoecfcrthucTc7r2F3Nu7zd7ejagxhtPsMNdxrTzNw8bdLGE1nY4MX+nmPqsVuOK7ssGH/Xy5viKmTOiLcXZYYEKt/KkcBBGTJBFXHxteyw+w4kmmYoHSNRMFHkmN20Ik2RCAyuY1tewEZMrTCxDM1QdfJRAyD8i1ulLVuqI0zYYwJRtLrABMNNhNsIOmKEoKMiGCghJZLZv8e1ulKVryMdQKI6xFPBuuth9n6ddGoTqRJUrdBZzGsGErlbN8eMazbCl7s5nSDZJytOmWKI4tt1cNSPEiYnP7pidKW7TOY1ghlRAe+PFGewQGWH9ZTOkGcsJa9mZaaXSuC/ppVL3elAQmDXIP15GqpTduZDBREyo4nWPEmUsMB2Dkw98rXsjI2QEak0ryy4lt08IRoGRooGEuRKCjJqqSzNoboSek+IeekIDNzKSvTNjNkCJNIRgYrErbgP6IjuJBAC8zXB18lEJQcZOXtlTN0ZODaSz3j4aZ0j3az6yYewVBvLJh7IEZaURAxlfCDkzGk9DCkcW4JFQZrkGQeZhBxEkoxmCipjWJiVMGd0UY7hWWw/DPL2QOkZMLiGA7RqZ0j3aYjAxkx1LTurFbXhl0MKXstKIYKDXK5W3dmwN8LPYWTQ3Cg9JyeOhKLcHhS/0ZEaRTi2ggffJ56yoNo5OZSlZNULlNWSmc33Sg4as2L2Upm7N4Uk9YyYOxgzuGmDuBBaF4Rk7QRGpZOncwB2jRltFQ7zyce2Er15MWttw81mHEu+T7oxlZAe8a+691M+4pw6hblmfwb4S4mkxouinQVRuZk8vdQ7QqZ0j3ayI0jMoghukTbv5cIHW75THeKy2Hk8fZBajlH+bcriKTOq/BunVkRpFPn4W8fHIf8ARuTy9kDoPLidtxkRGsqwu4ZUYLNHg7Ip1u1E4MPO8fdRbgqY1hU7WZPj5hOoU6NV28+Ej5OyuJ+S40XTZ0Xbx75F82/XOm0SgiIQicQtRpd5bsohgoRbBb87B3AidCybG1se8U+PgifhU+8J9meCn6T/AEyb7tyuJ9kR/nRToKI1PnvLsbVbnseWVpiDLeQMWByy1Y0V7bDU36AYWMqosZKmYk5k/kbrT8hdV+RudEYqS6TiNu7KPZ3gj/S3/fL7dlcfsv8AnTv52/QunzcXHJhD/cpmBLGHUWKXU0V7clUsMupbX7balvB8+Cb/ADt/vIf7ZP8A6D+lXH6W/wCnKu5W5lzOlry4dOl9Rfv11NJRoeNwrwLP52/3kP8AbJ/7j+lP/S3/AEzuL5NvVzfuuawc9Llg71kMiXJhS9920+GrscNueDceBP8AS3/fL6dlcfsv+dO/nb5PxC3TVxibnZobKXAUGGKWc65gBMKytotU4tcbQ7K1bxrbwD723TQYmsDHF7eaXcJdTfZuVxHxRP8AnMxFOvbYB/KbJddvfzYdfcGvuLjC1NmcIuIpeDtmre0VbReXoWomZMPssHPW37++xEmTyRcOGhxO6GPy1zR4ncnHrLiiMz6Vtfutqtb9d1OUxqN1hjQns8Gn599itzsDtcJTsRyXVgq5q4tW2xdjg39u+uW8a47RS5a0BgA5TAWDeYaSuxwaPl3rfZPa4QnczoX2GwdfXXwcdLfvZjWCHYfaWieBbdCZ0q+t4uCmNJ6uHhssu+xRPDuuzw5PGu+gRwFEZMlattYjY8SOoI7iEdo99f2/qLfs8KVAW/MRiNE+hWTKAIDPE7SFH08NXxL3wGKWnDZ2KFS53AII4jBr1BV6ivUVxyrcw6hBTQqEeRjICuHNxVwibd3SwdWgeAMBYF1bFat7DB0++XDCuCFcIK2DHL9Ub6BUnURAxitvxEdK1VwbbwNzbhcqck0M633VsqE2/QmYiifFfNsgmIzmIIXBwm9DDk8a78Hd2gXS2qNLOrh9vL3bWBUPKKi4iuMFcUK4oVxwqbipcc1CzOhREVppnM6Qxu6sRVIN6GGW/BtvCXVoF0DkHbs6f3Nlb+mt6kBmpQFenr09enr08VCQqBiOU2iNam2Vqgaxde6357C29S/w1xbruV3Voy1PpYXbRJ9QnCNE0joETNQMDFNXDVNWSmcqwJp2tuNsnw5gLBu8LNfRscPl9TbzFbjCouKhwTW8Z5Na4gxUvGpuJr/RlDb0IwPIbYGri0K7o1mos1JY87OyG1HxVxYJuKfhtwqpjTkUhjptcKEOSVBNTb1wCrgnXDZXDZXBOvTlUW8VCwjlI4GjdJUCZmojSGJW6DwhE1+GGgwm3GgWCh8aaVtosMtSr8TbV+NtorYSaF9QUF1yMRonzNCsjoFiHmiSM1KjGocY1FxFQwJ6MtCKm4qWGdCgpoVCPnpGCqUDU25Vw2DW5kVxjrjnXHOuKdasmuEyai3moSEVERH/AA2kVpH/AIqf/8QAOBAAAQICBgkCBQMEAwAAAAAAAQACESEDEBIgMVEiMDJAQVBhcYETUiMzQpGhYrHRYHKgwRSSov/aAAgBAQAGPwL/AAqNJwHdTpm+JqVt3hSoT91KhH3Xymr5TfutKh+xWlab3C+HSB39A6b55BfCo/LlOlI7SUzHUxBgrNLptz4oPYYg89tUh8ZqDPht6a+BPw3Y88zecArbzE7iI4slzo0jvCL3mJO5UjOkedCjadFn77nSO6c40ZqOSLs9zgdp0+bTUPwtL7Kkh7Tufq0o0OAzWjNQMwojmcBiv9qVVKP0ncQ1oiSrdPpO9vAV5HmdlqicLhB4ojLXhjBElR2ncStKalXAr/a68vstVp2FyDfuonBGGDp6+075jvxV1qgZGuBUQuvLYDFROFcSoDBRdVbGNHPXetSYDZUrkW4KDq4HlsV+9cTV1r0sEWjZ4axtG3ig1koVQdci1QOFcDVEcql4UK4DBdbpIm9sxrDTnjIVxb9lBRFdoKya48QrJ5TZzVquyPKtGvqv9qAqtN2Hz1QaOKbR4QELnWqIrtDBQONcRxXXk8V3r6qJwuwFZo/q4dFA6kuODAtFQ/F6IqhVGqCnyezmrWdclCqJqgK4NUXYIUzBoux1Nri8xqmo/lQONfVQOFfUKzXaz5RCrurVdlR4muyFadU6jdgU6jdiNQ1ntELkRgoHGu0FZyrko1EKGfJSo5VwyQFUVE1wGJVo4XPXbiNq/Rt63peFGvtX2RbygBd6iblmuNULhacCnUfDheJ9rb0FOu0oZXgeTAVQzRN6yo53rbdpigFEgMH6lOn/APK0KRru8l8RhCpXdhftVwuRzQNRRHJPNYCFRROrLmNmeKi4gDqvmjwoNpWqDhEJ3p4OMYXyFDO5GqKhURyQ3DWBWSu2ozecArVI6NdlxtUeWSDmmIN7Se0dyp0zfCiCTPJaNG4rRoR5KwaPCh6v4XzioF8fC06MHsoWrJydV55GeyPavzWEKydQ5/2uuoD3CJEytGjYFtAdgp0zlpPce51kI2me0q2zPDkZRr81+EO1XlebzmUZtWcVSn9JvUdR77haahSN5EUa/NfhDtV5Xm5Mxd7QoRss9oTm+5qczMQRacRdt8GBOfkNysHZfLkR7I9q/NYQrIqhatOyaoN+G3pW2kHAoObMFf8AIox/cLga0RJVn6jtIUDcXTO5sfmJ8hLXPnkFGw4qYe3wvh0gKNYNU0QaUE9Jr4TP+y06QwyF70qU6BwOVVph9N34Uiw+V8Ska3tNaAn7ioY0nAIvcYk7m9ntdyA0dCYMzzuypHKFoHwvo+yhFv2XzSOy0nF3c6qA0me0qyGuDqyIw7IvoyaQfndKUdBv/otM3Y9t2NKcX/tdjsv9wUHiXA7lSf27++kzMt1awYuKDBgBC9ZeIgovodJmWW40p7b8/wDtO7Opj9MhqTS0Ag7i3NQOve7N2/EZotPAw3VjOPHVW6MQd+6gddR9Z7/a4Pnugjg2Z1M1D8KJxXrUY0xiM9aGjiUGjgN/IG02Y3S39T78ytFR/KlX6rNl2Iy1jf0z5D6zBoux6Hcm0Y4lSGGSx+6wC2VsrguKnJZ3OqIdgcU6jPDDVvpc5DkJY4RBVk4cDuLqY9hXshYLBbIvQb91E4KAXqjaZ+2rZR5CfIrDvByRY8TG4MYOA1M1ozWa0p1kHApzMjqW5NmeSQMnDAoseIEa6PBk1xU5qYq2ljVJtX8qc1KuJUBgmuP1DU2jtPnyWBk4YOVh4nrIIN+ozdVMVbS2ltLGqQu5mqJmU1/tOoEdhs3cnsvHY5KDpt4O1frUnDZGtzUFpSUqnUbsHBGjdiLwYwRJQYMeJ5QWvEQVbodJuXEan1KSVH+60VxUwsltC7tBZqQXErSKkLkBMq0NscVZe2BuWaNsSo4vOJ5XGFl3uCkLbf0qdyFGwuVun0j7eFzBScuCwWBWBWCxCmVhdmVASUXKAUKRgctFzmr5x+y0i5yssaGjpy7TY13cLYh2K+r7rRZPrNSl2WkFI6+ZWjJRXXnUpL+F/KmFtanFSC/hTlz+YUpKRWBXFY14r6lgplZqX9DYLD/Cp//EACwQAAECBAMIAgMBAQAAAAAAAAEAESExQVEQYXEgMEBQgZGhseHwwdHxYKD/2gAIAQEAAT8h/wCKgK4HMyng+lFJWglfdWr8tr/RKFbvENLAu7PSEvkQMf8AAwkPVFEOBjM/CkZWUVcxXJ3IEQQqEfDvbP2g85YjnsKmwTQiTZJRPVT3wlHLDbPnjCDdM5lHRZ6ngSuTxv451SckuU/sbngjiiIfXfnJIByWCioA78GIaQCPPxziAxL0TiTkA+QRj0yfg5GDufxzZ6F0TcSsVRTW5m9XBlE2Cd9wUVgeV8wgT4HHMw1nqnaTqSHMEb4Z0ergSQIIAISGKH0OpYRoaiBtvyhMIGo5jNEalGp/ZABgGGMZNjMikZk2/OgKYAKUJRAooPA8p3G+LKE+gdEGDGHL84RqV4IF8ZYKISLjVQ0ht/O+AJLAOSgtcKOS2EQlcE9ZZhf0ExA0OCnyQoUNgy8tv08J3TecQPDALtoXQak2whH+JXfQg/KugrkCMSADEOESusspzhQ4gMBwU9QdChO1qOVicToE4jqSAAAAMBgAxGATGAhQIYOY+uJCcFzoLlcXPLeT4jnYIQAQYJ1RGYQKE3U8XYUahOP5sTtGhZ5oApB5TJNKSQIIA64EsHKP0wLobhnxjKJoEbplZe8KLjeN1j2tcCAQxQik4EqgpxD4vOGNQmY8KHGHkW4MuUwBOZMB/TYowaiZYjYESonwTqjKMIKUWRqN0ScCYINIWj7Ai1yB++K75BjcB4VrHnGwSRmiB5OAhSCA1LsgAAAkMIzVJWATzxC/UyCfpOpQwBgMZj5iuRCAYiB3IAt3nUqufQp5O5AoQNsWCZ0K9izQTIOACFIqAKSzQQhI4AOaM3IYHk7YhqT6U5MSMySCAIcBGkBE6/whPEejwqUSgsugMpAEUO5jkRHRLBnCmIMKArb9sR5KSNWE8sY2MhRFIyxZAkjGaiB5MZg1LBAAEhhBBOBPkVIDGAZCajzEdjwqVLBoMJQK2iCyxWO2ASAEyhj6OIgEMYhHL+ZN6bzj+WUbTkxjUAMQmy/C5Ewnnks+uifcaCMiyNwe+xWwETj/ABYTmilnsMIqOi+3baM9I7JABjIp9yTJCuK4EACDIruXcIEAIkcI3WJewGIPNQuEC4BFeSQeqo5qwyYCbSaROLwhRMNzE4AMUggNR4CAAJDYCi4GIRWZjuNrNkP42gkLojNwCRxeEKQKeTngIcMu0OPpUyZQ5I4i0FlYMG8wmbk4EsHKCZUucWgCsSopntIGVxmKhEAAkmQCFjMpHsmEB8vkgz5ICM7PaHqvsl9tsQrNNNxA4PZVCYwawOLYWFp9hoKK9lyTvsblgE0csNaQWiYYnKqWCAYAKbYBL7upkEyaqkyPMTaCUXi1jD2icQ0wQmu4RBTb8AJ9tYvBGqJi4YPBYU8VhwHNAjZF4cjNjWCFxyGJ+AgGDYamKYdc4ZWBRGzcO4/bunebBQYiJVYp6EAMG4I2vEqhTZ6n9Jm9FCA+WYKiHVT86NIIGAWBfxQn2McxRIsJuZEhF8jzhD5cjmywRMRxZQskLaOBseaGG3EgBzIIgTAlhsNk7jBv3oBDAcC6K8g5Uj06vRMt6XnxDvDQ1I9WTtriUxyPw14+MQ7GeKwkpM2Uk9VDEJIwiY9W0RnUkeDhCEXcABmiJi6lWmYsbci8deHjAOOWnisJaTNgLI7+/CfD8o1QDOR0QTEjIBlisRsngIg9TBDPSOUYl+BMItdkaHkQusUDEcWETJG+jgLnkjhhOvcjynI2RP3U54XHrUIuTNwU6uAZXvYIXOYAIJgMYs0Mq8SOCBYuFcvuK8hAAy26VAxdEZbXHIZ0N49kLjqgXAN8NAFOMsUAcgBco5wCSiRorhn/AEXpIBtBOctT+kCHAQQUXOiwcuiNQ3oRSAdRT9nOYUWgQbo6p9E3J4NyLnfjyWDmSKXFAjP47El7hF0EMguKykuEAZLDIAR0I457U3UYvoQTRyDkGXfGNJwZyiEeKol/t0QxYz4PXpOPONsN8vDGwRIaNkESH2I3U5tJkeC+pnx0kU5LsKcLQDCCqwQbRKLPAqOqpV+3A9Mh744ySJj0cM2CAdT773NwABLQiCRAxEwd/pjdhxwjsgZGmQxcJNQ9kfWdyAHJYIsy6pDAIImDvmNUPLj3cRDZrXhINP8AHbkU5dE0whQEKs9U92xU/vemnwQCFLggOPZx9llLgzsmcfpTbkhojmANmUSdK5BoI3xaOxYFW8kmEXp88hqU5OCJj7WiZhCgCCEJIKhF9nX2dE8gClHLRUokeZ2ewEadiMwoBLW5LjdvEJuQzbpsQjmMcbw4F0NL58CAZh0STR9ZX3lCW7GySAclhhI3IuumwME0Du57oA5YK7HcV5EVwzO4TTbyZ78AkAJlNNGYRU13IVyAQ0AddPUegUViWpiMNwMQoru8HvuYoH3hyT0OGvYnW+bu8e9ESXYMwqESoRogepHRfcF94RBc9ED9hUBBbREnIOqRY0AAwMMQPDBFp/ZDSb8W5YBtFaU5L6riRo3CRod4AQAHJkE+/wCQwkKURJx1RGhdk/8AhfdkKhoKhOpUjBswUaCNxyoF/FBGCi/ofo3BQg+gylybojE0YA5Ikd3BldVN97Ii7JEmQFgohAsmgDDChgEF1ittOkGwCjsTXjygPWeBTi795mpbgmAmlf4oSzSBSSBbOGRRr+imhOoISXcTg1xICZCM0gGTobKC+hBEn0Ag8rY/mgu8okckYnDodgYM8QT/ADDaOQ5W/n9bFOpz6bsiEwEGx2HPDIQCIggphJ+0AwYSwIBDEOra0QP2BEciSZ+S/qJz9iBfkhUAgZp0UtHrsg3VQl5VMBZAaGCasMxJFXyt3CjrnHyMlh4WWGA5cKZYSY9bg7HyCURvYqfWCHQjv7qWUMDUi7oC5UkD3HnM1FYuSOOA+aQgl0NnBSENwSBMsqDOiF+9EmBOiRCEqW5uefSoKPmKASCqDoK/60z8FodlmDsn/gr8tEJkupVAjRTwHUgDABp/hWFlluyynZMLf8VH/9oACAEBAAAAEAAAAAAAAAAAAAAAAAAAAAAAAAAAAAAAAAAAAAAAAAAAAAAAAAAAAAAAAAAAAAAAAAAAAAAAAAAAAAAAAAAAAAAAAAAAAAAAAAAAAAAAAAAAAAAAAAAAAAAAAAAAAAAAAAAAAAAAAAAAAAAAAAAAAAAAAAAAAAAAAAAAAAAAAAAAAAAAAAAAAAAAAAAAAAAAAAAAAAAAMEAAAAAAAAAAAAMAAAAAAAAABwACAAAAAAAAACAAEAAAAAAAAAIAAIAAAAAAAAAgAAAAAAAAAAAOAAAgAAAAAAAAAAAAgAAAAAAABgAAVQAAAAAAAEIAAgwAAAAAAArAACpQAAAAAADpgAIVgAAAAAAMhgA2UQAAAAAAykgAeZgAAAAAAiJAHCBAAAAAAENgALKrAAAAAAJQcAEKyAAAAAAKEWABMgAAAAAACBECBBkAAAAABYqAACKEAAAAAEVQCgEQAAAAAAIIgXwI2AAAAAAgAAZhjbgAAAAAkAAg1ADAAAAACJEMBAAAAAAAAESIKFAACAAAAAEkpAYAAGAAAAAMCAXQAAAAAAACmgAIwAAIAAAAAAAAQwAAAAAAAYAABggAAAAAAAAAACAQAAAAAAAAAAMAQAAAAAABAAAABIAAAAAADAAAAGAAAAAAAAAADBwgAgAAAACAAEqAgCAAAAAGAAABsgAAAAAAEAAJwHAAAAAAAAAAUIWAQAAAAAGAAAFGCAAAAAADAShmKAAAAAAADDgfRLAAAAAAABoAAKAAAAAAAAAK4AYAAAAAAAAAC/TAAAAAAAAAAAAAAAAAAAAAAAAAAAAAAAAAAAAAAAAAAAAAAAAAAAAAAAAAAAAAAAAAAAAAAAAAAAAAAAAAAAAAAAAAAAAAAAAAAAAAAAAAAAAAAAAAAAAAAAAAAAAAAAAAAAAAAAAAAAAAAAAAAAAAAAAAAAAAAAAAAAAAAAAAAAAAAAAAAAAAAAAAAAAAAAAAAAAAAAAAAAAAAAAAAH//xAAsEAEAAQIEBQMFAQEBAQAAAAABEQAhMUFRYRBxgZGxUKHBIDBA0fDx4WCg/9oACAEBAAE/EP8A4qN37CPepwRMm+BqcN8MPdKD7beA0rAc1+Kcoef7KK3vIKnkoZsvkp8BXOB3T4rcwxw5mJ/4GWh/+GYdYpoZylPZ+6QZ1tva9P23FS+/2XBFIkJ1rJNEsPn8u9FFKfAdHb12ClOubY+cKQQtsFb/AKRSqVVXFfvMygIbPI8s9qEQRkc/Wwhh41h4PNK7W6YbBkbfgikyncUMXZO3rV9aMS3fApkkgabGx+FICzDcY9ZOBBirFBio0YJi9CDv+HEPFu7L1coErAVJEds/dGPULICmJlb6v4Zxbf2WiB28+rY4TgMWoUIm2Zz1oyHl0PlprkY4ERd+G+2+sla/y9T8w5ZP3SxKFpoEDTM9Tmo/ao5ZE0MbhisXgoF2H3fgvXyHlWh3xeJzNXtzoAAABYDLgYxaLB51BbrMcBUlscXL1G60QctilyXF3oHMGAcUgkkOKJQHQldGPv6llzUDhIMXsNt6VCdfJ+6gFGZmcW8oycyhTIm1VnYFzXc9PvNILLYq3Dcfy1ABAQHBQKoBitYr8/0qVS13E5KOYRVdcPcL1+8DciACVaHHbi9p88AGH9V6GFdGE1Ax5LlxPAYgaDovk8tqtLAua7npt4bWOimjmbPNQAQEBweAxC1FtJQDHmqIIxTKc+D3CzZiv/D0+80vWgRI63Lzyre/Q8XpkxGp2XEc1GhMwLlzoRJGR4R8BcoyqJnXo+bG2k+lo7mDUaXKpNA2wIA4HwBK0CddB+WhkaYvgcZDSiDAjlUqhjs3h2w+5lSdhzHoTU34YNxjXeuj7hNRQGlweelCARkcE4jONiHPcpgdXYX+WoRJGR4A1jg6OtNxLqBkKfqQkfSVAqwF1oSCy/Yq/U4rV4AiAF1aHzwYDNrUQxC7ptxkjlwcWosCshgKCZDsZMjme4fcxTdnMA3dW3TgiARxGpCy5rB5VCNS6o5UNhHucYlmXLPephcLNltxt7atuaVea/iyfSYt8zYVOHdty68ZlexiPFR9lWuRrxsYFbRu0gZE3sqLwjNzeE3FRhLf0PXb7RWycN2j3gsgwYzvjQiSMjxv+xgfmnIkJiZCjieQeNkblwzVeK32a8YsoabZNRKfI6+jojAS1eGo7KMqAgOAIHIO+tO99Zlm04yVDa1qYqiZrAlkOKEArbJwv7daTAtByT7PwQ5R7S9KcmT/AFjUZEDHBq/sOLx4xrgcwaQiQmDIUqU+xwDGQhKvZilaKX+xPLhmqFnRyrCMkbl6PJi93IVAjI5OOIQMdZLhd1eC9QEtWrioDIULVjF1deGBLTNiYBz5VHTNczUMjAIsOD1Pc3+zDwJZss8L14RqujmUGUl2HOiipkuX/XGy4MZ8U7lEgubWhkk4TAZm4zKmHzdjxiBkPOpSZ7wejKS/sVAxAQcJNItOWdQyt3nGFXN3NWhtS7GnFW2SxZ7UEbk/l4E1L05rJNxvUjB9zRNkv9ZlSgBq0BluoBfiiASyOdXyLeqq6Fqzo/fHKtj81OLa6ji2JCfShOyXNHPhEhYdQqRGwtzPRYXYUhzalQsLc3+eKtcLJvnQAZL88+A5+EDVpMUWRzcuN2LWOirfSljm+jDfQgxy9Dbk7fXNxMJbXPH0uTEIRzoSiS2G1ExYWGjwMuQhKSwoHCkJHhLEyXLOsRf4vxVVsPKxo8NCT0SITiq+PmopF0/DgDOc015E+d/vGfFjLzajqRwxy4CWr3zy0AjAQH0DDedgiQlTYoZOfg/HM+qXSwjup4L9WMVitGsVQx6b8Y7X7T+81LC7bk8AREiQ0kRbRvL/ADjeM1Xk+ai63mvRGMvAH91ohMo4QYbwdC/6qQC8RyOAMkAS0guDpmPGc1+wyqbLR5fVLTSYi/8AY9N6TC0AlXlSUheYOxL3ikWTRIUfKjMJ81DALBGeULVjRoPc/H1wStbzVdjP/M4Hh5insqT/AFz4wSW9w/ir0SsHmW4bsiKv8kf3b0SwcSTpM8eYh3/ytWGT1vwlZjY61M7IDrxRxT2zCjFQCD6kkhwo85KuIXoFMMWxAdWnrA0TuFA0Hg83kQoOtwMicqh8HkThiB0+uxl4nmKlRt7h/PFLElD/AHOjOwB4a5e21/TY8N3ArZA/L49D3NH2qaajxQxqDtQGMAjhFqB7f7UFqn4+OGuyxzq+8EeuH2DREgmx3bFN1c4sbYYHFdWYTIap8YUQ1mbH0rGNZc38C1L2D+d1XI6E5JO8VI9T/K0uduU8Aoc3BBM+VqBEaAHHtQLP9HKl9lxPiBQNC8rs7zRoWEG92we9CIIyOZVkws+8ehzPdUmg+Rxu9/nxm0U/f/lQfa978IzqD3rmxD60bQEq5FNuZgycD55v0zes0uTk9x70StNLEgsVKnVb5KlYX+F5qVgzl+upqZT+Raxx+2FEDeUBu/xUzcIsC6J6HZSF7Z5494eeKkbD5owH8RwUDqPDQh9V4PpUCqAXVyoJIjd3qQOeFWwYJ6vq10FyanCiYAAO/wCBFvS5gdGmZsw7fOXoRmk7Wzzx7wPfiYbUeWnKfxHAyug8NKT0Xg+gE5YJPVl1UhIGC4N2fjakEiTmUPiaxTGdRKbYi7JGH6TuI1ygge72pL47JLUlFisv4MQVgFt/IddvQonu8VBqPkcb90n78YtfH3/7Un2na3CW6h966qGlAlYCpUjdZvgKHCW0l5vi7RSqVKuK8J3VJByE6k0I8E2Y0t2S0uJ469/ogLGaVaUqrFz0GxUtFCFwcDq36b/hICQjImVT6yU5NvcPoM8FBKLnFjrUYxCOD5oZKMwB2Z9qIK7lgOq9MRnA7URmAnhNqg7/AOVvRj5pWdYpAU8KAX09LUkgrit2fupcQ/8ALMev1GYkh8zXd7UGA8iMiU568SYeHTtTkyIi9iUDcwhfgKWiAi862RsUIBbL3aDzSW5xZv4boJYGwP2P54MgAlXApwAK8chy8qxu8RUIomCVGWAQCg6NR45BlugUQ4nV+6VPTNr5mnPvhHxK3U43l9oECTi2ObE8bUrS0qQGznnHHHhVk3ByaZQyNw5/pfakQEDCJc/DYkW7Ip8/n3VwI30Ovg3/ABrPUaeVg7s+302ErYLvJ/qsUQzfLcnZ/CLNlHw/OUCrAY02irhobDsH4ob2B2nF6Y1H6Y7BH1CJyByNGiPfHP4e/n8FmPY71Xx+djlgc5fjX35268XofZGh6Lbmh2zp6DoBCOn35UIYW4Hyv52OwFySKKKCDcY/EBQBK2AokIdevPbDp9lOYMVoj4kII696SC6AhHR+9OZCX1KeyfntF0qyyjvfr+Jvkdgxg7x7/Zx6shi0GRdQFI07clHask2BmbPf7odSRbrFB1HKII/Pu/c7Ux6j3ikUiIlkfw2YuYm4bDy9frDtnRd7VNw/UqeqLHN5a1B5FisXiaJ5DIaPnn9y5ZT+J7j0FWyEiyfD5n8LBwSdGK9CWmU4hFgHvTOA5CfNE9skoWf99KVkev8AzXjNWlUDuRg9qZljuy1CqDn+v0LhD4aOdMkiyMAqatlMOPg/2c/bxljTYu+6dvQSzKK0qa/Cu37jP8HDeMzq3XaDq8BYAaJNeNRFK/8AagsrzVYQO6gAgIPoemDFWpJ6q+KkOoyrHkoSIKGYciXTHs37/aQAVWAM6CKgrzb+5fQiEyGX1D5KlOazkchs/fMqUgDNp4kCZIt13X7MQbqsVJp1FimF6BaiOY7J+6ww4EkTdgiQ0q0BuhNnqR9meTcutg7x7+iMIRLHd6Oo6U4JmGQyRzPvIQIRMDkeXpUCblk9qtwLch9qX7smsU5xUPk7v1SeXov1WHPK/as1O8FPQp5G9YsjMiohb0LFFyBkEcXgAxWp6VbLnSP7w85sv0T7LWxc2Jldr9fRYGgGAu9HU2prV4GDqOZ9x8SgAlWgImOGrLoW4Y+2sXrwr/ak4DnKnIP950LMdP8Auh4/kBWJ1QiOXn0zibRsc2onC8haiDg1cuSp0T0wR5PsELsKZJl1eJoAAEBYD0ZBPi+KNRq7kbT/ABdvtlkE/wCZwy35fcUCVgqcNiw96vZaxjtQj7DF/VRT7GfAxLh7Tg9G9TOXW+ibJf6lmxg/sKhTXD8/pkekEV6ByNMkx7iD4e9IpERMR+wdC3GCbfKh6DQYgeKlwJkye9DsG5RWLJ/GFY4OijAB5PHAlza8UGfFZ/tiPNWDdW7ULk9v0pkQv5xqGBqc3r9E9Do5c1MsYVrAavinObc47am/0IHmMFjVcApokOisPB59LvJuRCuzB870qMWBTDfF2mk5XZCE+jWrj3BwKOXL4g3f8c6AgAEAYHCBAaJNXa/q4peMbSV55EpwU+QqD4v+qz3W/wCqxYHMU32yWvZKRVxc63eaCCD6IuDQzelPoK2tiqFl75/VHABgFRtfDG5HE6U2k2QF3J96MchoH90PjuTTsn3oqL6Ceevp3PjQU640wqTpPZWgmUez/wAUEJgwWDzFqQEZgimD/D0qbbIN+33xrOxdqSgNV2rlUxz6EHuV009ZQCII5NT8nYdqnyJgl+2NJWUyF6sCupcrPLosPvQiSIm31iyA1WKxpml1Cszu49qxNGRFXMN67UIkfd9eGjnperil3Kwg97NKpFu58Vnj5H5oxxeYrdqVyaNudorJ8gaUkG9T+2CauqG61Qougj/wq+IeZU2PbUHh21AYA5H/AMVH/9k=;" vertex="1" parent="ssCzipvsPn632TLhXLIn-3">
          <mxGeometry x="75.00000000000001" y="30.910000000000082" width="92.18" height="92.18" as="geometry" />
        </mxCell>
        <mxCell id="ssCzipvsPn632TLhXLIn-7" value="&lt;div&gt;&lt;b&gt;&lt;font face=&quot;Times New Roman&quot;&gt;AERATOR&lt;/font&gt;&lt;/b&gt;&lt;/div&gt;" style="text;html=1;align=center;verticalAlign=middle;whiteSpace=wrap;rounded=0;fontFamily=Architects Daughter;fontSource=https%3A%2F%2Ffonts.googleapis.com%2Fcss%3Ffamily%3DArchitects%2BDaughter;" vertex="1" parent="ssCzipvsPn632TLhXLIn-3">
          <mxGeometry x="62.59" y="117" width="101" height="30" as="geometry" />
        </mxCell>
        <mxCell id="ssCzipvsPn632TLhXLIn-8" value="&lt;font size=&quot;1&quot; face=&quot;Times New Roman&quot;&gt;&lt;b style=&quot;font-size: 14px;&quot;&gt;SERVER&lt;/b&gt;&lt;/font&gt;" style="shape=cylinder3;whiteSpace=wrap;html=1;boundedLbl=1;backgroundOutline=1;size=15;hachureGap=4;fontFamily=Architects Daughter;fontSource=https%3A%2F%2Ffonts.googleapis.com%2Fcss%3Ffamily%3DArchitects%2BDaughter;" vertex="1" parent="ssCzipvsPn632TLhXLIn-3">
          <mxGeometry x="635" y="46" width="70" height="71" as="geometry" />
        </mxCell>
        <mxCell id="ssCzipvsPn632TLhXLIn-9" value="&lt;span style=&quot;font-family: &amp;quot;Times New Roman&amp;quot;;&quot;&gt;&lt;font style=&quot;font-size: 16px;&quot;&gt;&amp;nbsp;POWER SUPPLY&lt;/font&gt;&lt;/span&gt;" style="swimlane;horizontal=0;whiteSpace=wrap;html=1;hachureGap=4;fontFamily=Architects Daughter;fontSource=https%3A%2F%2Ffonts.googleapis.com%2Fcss%3Ffamily%3DArchitects%2BDaughter;metaEdit=0;movableLabel=1;fixDash=0;swimlaneHead=1;swimlaneBody=1;swimlaneLine=1;strokeWidth=2;" vertex="1" parent="1">
          <mxGeometry x="413" y="-685" width="404.5" height="483" as="geometry">
            <mxRectangle x="498" y="-696" width="50" height="44" as="alternateBounds" />
          </mxGeometry>
        </mxCell>
        <mxCell id="ssCzipvsPn632TLhXLIn-26" value="" style="edgeStyle=orthogonalEdgeStyle;rounded=0;hachureGap=4;orthogonalLoop=1;jettySize=auto;html=1;fontFamily=Architects Daughter;fontSource=https%3A%2F%2Ffonts.googleapis.com%2Fcss%3Ffamily%3DArchitects%2BDaughter;" edge="1" parent="ssCzipvsPn632TLhXLIn-9" source="ssCzipvsPn632TLhXLIn-14" target="ssCzipvsPn632TLhXLIn-17">
          <mxGeometry relative="1" as="geometry" />
        </mxCell>
        <mxCell id="ssCzipvsPn632TLhXLIn-14" value="" style="shape=image;html=1;verticalAlign=top;verticalLabelPosition=bottom;labelBackgroundColor=#ffffff;imageAspect=0;aspect=fixed;image=https://cdn2.iconfinder.com/data/icons/business-and-education-1/512/133_Solar_Panel_Energy_technology_smart_city_technology_smart-128.png;sketch=1;hachureGap=4;jiggle=2;curveFitting=1;fontFamily=Architects Daughter;fontSource=https%3A%2F%2Ffonts.googleapis.com%2Fcss%3Ffamily%3DArchitects%2BDaughter;" vertex="1" parent="ssCzipvsPn632TLhXLIn-9">
          <mxGeometry x="27" y="27" width="128" height="128" as="geometry" />
        </mxCell>
        <mxCell id="ssCzipvsPn632TLhXLIn-15" value="&lt;b style=&quot;font-size: 16px;&quot;&gt;&lt;font face=&quot;Times New Roman&quot; style=&quot;font-size: 16px;&quot;&gt;SOLAR PANEL&lt;/font&gt;&lt;/b&gt;&lt;div&gt;&lt;font face=&quot;Times New Roman&quot;&gt;&lt;span style=&quot;font-size: 16px;&quot;&gt;&lt;b&gt;&lt;br&gt;&lt;/b&gt;&lt;/span&gt;&lt;/font&gt;&lt;div style=&quot;font-size: 16px;&quot;&gt;&lt;font face=&quot;FcKMrYjA9fOUGQs8Ajbf&quot; style=&quot;font-size: 16px;&quot;&gt;&lt;span style=&quot;text-align: left; white-space-collapse: preserve; font-weight: bold; text-decoration-skip-ink: none;&quot;&gt;Make:&lt;/span&gt;&lt;span style=&quot;text-align: left; white-space-collapse: preserve; text-decoration-skip-ink: none;&quot;&gt;Generic&lt;br&gt;&lt;/span&gt;&lt;span style=&quot;text-align: left; white-space-collapse: preserve; font-weight: bold; text-decoration-skip-ink: none;&quot;&gt;‎Dimensions&lt;/span&gt;&lt;/font&gt;&lt;/div&gt;&lt;div style=&quot;font-size: 16px;&quot;&gt;&lt;font face=&quot;FcKMrYjA9fOUGQs8Ajbf&quot; style=&quot;font-size: 16px;&quot;&gt;&lt;span style=&quot;text-align: left; white-space-collapse: preserve; text-decoration-skip-ink: none;&quot;&gt;50.8 x 35.56 x 1.91 cm&lt;/span&gt;&lt;/font&gt;&lt;/div&gt;&lt;/div&gt;" style="text;html=1;align=center;verticalAlign=middle;whiteSpace=wrap;rounded=0;fontFamily=Architects Daughter;fontSource=https%3A%2F%2Ffonts.googleapis.com%2Fcss%3Ffamily%3DArchitects%2BDaughter;" vertex="1" parent="ssCzipvsPn632TLhXLIn-9">
          <mxGeometry x="187" y="46.25" width="152" height="97.75" as="geometry" />
        </mxCell>
        <mxCell id="ssCzipvsPn632TLhXLIn-27" value="" style="edgeStyle=orthogonalEdgeStyle;rounded=0;hachureGap=4;orthogonalLoop=1;jettySize=auto;html=1;fontFamily=Architects Daughter;fontSource=https%3A%2F%2Ffonts.googleapis.com%2Fcss%3Ffamily%3DArchitects%2BDaughter;" edge="1" parent="ssCzipvsPn632TLhXLIn-9" source="ssCzipvsPn632TLhXLIn-17" target="ssCzipvsPn632TLhXLIn-19">
          <mxGeometry relative="1" as="geometry" />
        </mxCell>
        <mxCell id="ssCzipvsPn632TLhXLIn-17" value="" style="pointerEvents=1;verticalLabelPosition=bottom;shadow=0;dashed=0;align=center;html=1;verticalAlign=top;shape=mxgraph.electrical.miscellaneous.batteryStack;hachureGap=4;fontFamily=Architects Daughter;fontSource=https%3A%2F%2Ffonts.googleapis.com%2Fcss%3Ffamily%3DArchitects%2BDaughter;" vertex="1" parent="ssCzipvsPn632TLhXLIn-9">
          <mxGeometry x="41" y="238" width="100" height="60" as="geometry" />
        </mxCell>
        <mxCell id="ssCzipvsPn632TLhXLIn-18" value="&lt;b style=&quot;font-size: 16px;&quot;&gt;&lt;font face=&quot;Times New Roman&quot; style=&quot;font-size: 16px;&quot;&gt;BATTERIS&lt;/font&gt;&lt;/b&gt;&lt;div style=&quot;line-height: 40%; font-size: 16px;&quot;&gt;&lt;p style=&quot;line-height: 40%;&quot; class=&quot;MsoNormal&quot;&gt;&lt;font style=&quot;font-size: 16px;&quot; face=&quot;rJCK81FoxvfkPrrLWgTJ&quot;&gt;&lt;b&gt;Make:&amp;nbsp;&lt;/b&gt;&lt;span style=&quot;background-color: initial;&quot;&gt;IMS Merchantiles Pvt. Ltd.,&amp;nbsp;&lt;/span&gt;&lt;/font&gt;&lt;/p&gt;&lt;p style=&quot;line-height: 40%;&quot; class=&quot;MsoNormal&quot;&gt;&lt;font style=&quot;font-size: 16px;&quot; face=&quot;rJCK81FoxvfkPrrLWgTJ&quot;&gt;011 4707 4444&lt;/font&gt;&lt;/p&gt;&lt;p style=&quot;line-height: 40%;&quot; class=&quot;MsoNormal&quot;&gt;&lt;font style=&quot;font-size: 16px;&quot; face=&quot;rJCK81FoxvfkPrrLWgTJ&quot;&gt;&lt;b&gt;Model&amp;nbsp;&lt;/b&gt;&lt;span style=&quot;background-color: initial;&quot;&gt;‎ERB 9V MU&lt;/span&gt;&lt;/font&gt;&lt;/p&gt;&lt;p style=&quot;line-height: 40%;&quot; class=&quot;MsoNormal&quot;&gt;&lt;font face=&quot;rJCK81FoxvfkPrrLWgTJ&quot; style=&quot;font-size: 16px;&quot;&gt;&lt;b style=&quot;&quot;&gt;Capacity&lt;/b&gt; 800 mAh&lt;/font&gt;&lt;/p&gt;&lt;/div&gt;" style="text;html=1;align=center;verticalAlign=middle;whiteSpace=wrap;rounded=0;fontFamily=Architects Daughter;fontSource=https%3A%2F%2Ffonts.googleapis.com%2Fcss%3Ffamily%3DArchitects%2BDaughter;" vertex="1" parent="ssCzipvsPn632TLhXLIn-9">
          <mxGeometry x="155" y="202" width="234" height="124" as="geometry" />
        </mxCell>
        <mxCell id="ssCzipvsPn632TLhXLIn-19" value="" style="html=1;verticalLabelPosition=bottom;verticalAlign=top;outlineConnect=0;shadow=0;dashed=0;shape=mxgraph.rack.hpe_aruba.switches.j9829a_5400r_1100w_poeplus_zl2_power_supply;hachureGap=4;fontFamily=Architects Daughter;fontSource=https%3A%2F%2Ffonts.googleapis.com%2Fcss%3Ffamily%3DArchitects%2BDaughter;strokeWidth=4;fillColor=#dae8fc;strokeColor=#6c8ebf;" vertex="1" parent="ssCzipvsPn632TLhXLIn-9">
          <mxGeometry x="40.5" y="369" width="101" height="86" as="geometry" />
        </mxCell>
        <mxCell id="ssCzipvsPn632TLhXLIn-22" value="&lt;font size=&quot;1&quot; style=&quot;&quot; face=&quot;Times New Roman&quot;&gt;&lt;b style=&quot;font-size: 16px;&quot;&gt;EXTERNAL POWER SUPPLY&lt;/b&gt;&lt;/font&gt;" style="text;html=1;align=center;verticalAlign=middle;whiteSpace=wrap;rounded=0;fontFamily=Architects Daughter;fontSource=https%3A%2F%2Ffonts.googleapis.com%2Fcss%3Ffamily%3DArchitects%2BDaughter;" vertex="1" parent="ssCzipvsPn632TLhXLIn-9">
          <mxGeometry x="169" y="388" width="221.25" height="44" as="geometry" />
        </mxCell>
        <mxCell id="ssCzipvsPn632TLhXLIn-25" value="&lt;font style=&quot;font-size: 16px;&quot; face=&quot;Times New Roman&quot;&gt;OUTPUT UNIT&lt;/font&gt;" style="swimlane;horizontal=0;whiteSpace=wrap;html=1;hachureGap=4;fontFamily=Architects Daughter;fontSource=https%3A%2F%2Ffonts.googleapis.com%2Fcss%3Ffamily%3DArchitects%2BDaughter;strokeWidth=2;" vertex="1" parent="1">
          <mxGeometry x="13" y="-682" width="379" height="473" as="geometry" />
        </mxCell>
        <mxCell id="ssCzipvsPn632TLhXLIn-28" value="" style="html=1;verticalLabelPosition=bottom;align=center;labelBackgroundColor=#ffffff;verticalAlign=top;strokeWidth=3;strokeColor=#000000;shadow=0;dashed=0;shape=mxgraph.ios7.icons.alarm_clock;hachureGap=4;fontFamily=Architects Daughter;fontSource=https%3A%2F%2Ffonts.googleapis.com%2Fcss%3Ffamily%3DArchitects%2BDaughter;" vertex="1" parent="ssCzipvsPn632TLhXLIn-25">
          <mxGeometry x="240" y="77" width="84" height="87" as="geometry" />
        </mxCell>
        <mxCell id="ssCzipvsPn632TLhXLIn-33" value="" style="verticalLabelPosition=bottom;verticalAlign=top;html=1;shadow=0;dashed=0;strokeWidth=3;shape=mxgraph.android.tab2;strokeColor=#000000;hachureGap=4;fontFamily=Architects Daughter;fontSource=https%3A%2F%2Ffonts.googleapis.com%2Fcss%3Ffamily%3DArchitects%2BDaughter;" vertex="1" parent="ssCzipvsPn632TLhXLIn-25">
          <mxGeometry x="85" y="211" width="142" height="179" as="geometry" />
        </mxCell>
        <mxCell id="ssCzipvsPn632TLhXLIn-34" value="&lt;font size=&quot;1&quot; face=&quot;Times New Roman&quot;&gt;&lt;b style=&quot;font-size: 13px;&quot;&gt;POND CONDITIONS SUMMARY&lt;/b&gt;&lt;/font&gt;" style="text;html=1;align=center;verticalAlign=middle;whiteSpace=wrap;rounded=0;fontFamily=Architects Daughter;fontSource=https%3A%2F%2Ffonts.googleapis.com%2Fcss%3Ffamily%3DArchitects%2BDaughter;" vertex="1" parent="ssCzipvsPn632TLhXLIn-25">
          <mxGeometry x="104" y="256" width="104" height="45" as="geometry" />
        </mxCell>
        <mxCell id="ssCzipvsPn632TLhXLIn-35" value="&lt;font size=&quot;1&quot; face=&quot;Times New Roman&quot;&gt;&lt;b style=&quot;font-size: 14px;&quot;&gt;AERATOR ON/OFF&lt;/b&gt;&lt;/font&gt;" style="text;html=1;align=center;verticalAlign=middle;whiteSpace=wrap;rounded=0;fontFamily=Architects Daughter;fontSource=https%3A%2F%2Ffonts.googleapis.com%2Fcss%3Ffamily%3DArchitects%2BDaughter;" vertex="1" parent="ssCzipvsPn632TLhXLIn-25">
          <mxGeometry x="109" y="327" width="99" height="30" as="geometry" />
        </mxCell>
      </root>
    </mxGraphModel>
  </diagram>
</mxfile>
